<svg xmlns="http://www.w3.org/2000/svg" width="1280" height="720" viewBox="0 0 1280 720"><rect width="1280" height="720" fill="#0B1220" /><text x="80" y="92" fill="#F1F5F9" font-size="42" font-family="Microsoft YaHei, Arial, sans-serif" font-weight="700" text-anchor="start">团队分工：5 个角色协作</text><path fill="#111827" stroke="#8B5CF6" stroke-opacity="0.35" d="M100,140 H1180 A20,20 0 0 1 1200,160 V620 A20,20 0 0 1 1180,640 H100 A20,20 0 0 1 80,620 V160 A20,20 0 0 1 100,140 Z" /><text x="130" y="210" fill="#94A3B8" font-size="26" font-family="Microsoft YaHei, Arial, sans-serif" font-weight="700" text-anchor="start">Role</text><text x="420" y="210" fill="#94A3B8" font-size="26" font-family="Microsoft YaHei, Arial, sans-serif" font-weight="700" text-anchor="start">Responsibility</text><line x1="120" y1="240" x2="1160" y2="240" stroke="#94A3B8" stroke-opacity="0.2" /><g data-icon="tabler-outline/users-group" transform="translate(132,254)" stroke="#22D3EE" fill="none" stroke-width="2"><path d="M8,2 H12 A6,6 0 0 1 18,8 V12 A6,6 0 0 1 12,18 H8 A6,6 0 0 1 2,12 V8 A6,6 0 0 1 8,2 Z" /><path d="M8 10 H12" /><path d="M10 8 V12" /></g><text x="164" y="274" fill="#F1F5F9" font-size="30" font-family="Microsoft YaHei, Arial, sans-serif" font-weight="700" text-anchor="start">PM</text><text x="420" y="274" fill="#F1F5F9" font-size="28" font-family="Microsoft YaHei, Arial, sans-serif" font-weight="400" text-anchor="start">需求拆解、路线管理</text><line x1="120" y1="326" x2="1160" y2="326" stroke="#94A3B8" stroke-opacity="0.2" /><g data-icon="tabler-outline/users-group" transform="translate(132,340)" stroke="#22D3EE" fill="none" stroke-width="2"><path d="M8,2 H12 A6,6 0 0 1 18,8 V12 A6,6 0 0 1 12,18 H8 A6,6 0 0 1 2,12 V8 A6,6 0 0 1 8,2 Z" /><path d="M8 10 H12" /><path d="M10 8 V12" /></g><text x="164" y="360" fill="#F1F5F9" font-size="30" font-family="Microsoft YaHei, Arial, sans-serif" font-weight="700" text-anchor="start">Frontend</text><text x="420" y="360" fill="#F1F5F9" font-size="28" font-family="Microsoft YaHei, Arial, sans-serif" font-weight="400" text-anchor="start">Console 与 Landing</text><line x1="120" y1="412" x2="1160" y2="412" stroke="#94A3B8" stroke-opacity="0.2" /><g data-icon="tabler-outline/users-group" transform="translate(132,426)" stroke="#22D3EE" fill="none" stroke-width="2"><path d="M8,2 H12 A6,6 0 0 1 18,8 V12 A6,6 0 0 1 12,18 H8 A6,6 0 0 1 2,12 V8 A6,6 0 0 1 8,2 Z" /><path d="M8 10 H12" /><path d="M10 8 V12" /></g><text x="164" y="446" fill="#F1F5F9" font-size="30" font-family="Microsoft YaHei, Arial, sans-serif" font-weight="700" text-anchor="start">Backend</text><text x="420" y="446" fill="#F1F5F9" font-size="28" font-family="Microsoft YaHei, Arial, sans-serif" font-weight="400" text-anchor="start">API、风控、执行适配</text><line x1="120" y1="498" x2="1160" y2="498" stroke="#94A3B8" stroke-opacity="0.2" /><g data-icon="tabler-outline/users-group" transform="translate(132,512)" stroke="#22D3EE" fill="none" stroke-width="2"><path d="M8,2 H12 A6,6 0 0 1 18,8 V12 A6,6 0 0 1 12,18 H8 A6,6 0 0 1 2,12 V8 A6,6 0 0 1 8,2 Z" /><path d="M8 10 H12" /><path d="M10 8 V12" /></g><text x="164" y="532" fill="#F1F5F9" font-size="30" font-family="Microsoft YaHei, Arial, sans-serif" font-weight="700" text-anchor="start">Wallet/Chain</text><text x="420" y="532" fill="#F1F5F9" font-size="28" font-family="Microsoft YaHei, Arial, sans-serif" font-weight="400" text-anchor="start">CAW 对接与链上证据</text><line x1="120" y1="584" x2="1160" y2="584" stroke="#94A3B8" stroke-opacity="0.2" /><g data-icon="tabler-outline/users-group" transform="translate(132,598)" stroke="#22D3EE" fill="none" stroke-width="2"><path d="M8,2 H12 A6,6 0 0 1 18,8 V12 A6,6 0 0 1 12,18 H8 A6,6 0 0 1 2,12 V8 A6,6 0 0 1 8,2 Z" /><path d="M8 10 H12" /><path d="M10 8 V12" /></g><text x="164" y="618" fill="#F1F5F9" font-size="30" font-family="Microsoft YaHei, Arial, sans-serif" font-weight="700" text-anchor="start">Demo/Ops</text><text x="420" y="618" fill="#F1F5F9" font-size="28" font-family="Microsoft YaHei, Arial, sans-serif" font-weight="400" text-anchor="start">演示脚本与发布协同</text><text x="1220" y="686" fill="#94A3B8" font-size="20" font-family="Microsoft YaHei, Arial, sans-serif" text-anchor="end">13</text></svg>