<svg xmlns="http://www.w3.org/2000/svg" width="1280" height="720" viewBox="0 0 1280 720"><rect width="1280" height="720" fill="#0B1220"/><text x="80" y="92" fill="#F1F5F9" font-size="42" font-family="Microsoft YaHei, Arial, sans-serif" font-weight="700" text-anchor="start">P0 API 契约（4+1）</text><rect x="80" y="140" width="1120" height="500" rx="20" fill="#111827" stroke="#8B5CF6" stroke-opacity="0.35"/><g data-icon="tabler-outline/api" transform="translate(120,206)" stroke="#22D3EE" fill="none" stroke-width="2"><rect x="2" y="2" width="18" height="18" rx="6"/><path d="M8 11 H14"/><path d="M11 8 V14"/></g><text x="160" y="228" fill="#F1F5F9" font-size="32" font-family="Microsoft YaHei, Arial, sans-serif" font-weight="600" text-anchor="start">POST /api/payment-plan</text><g data-icon="tabler-outline/api" transform="translate(120,292)" stroke="#22D3EE" fill="none" stroke-width="2"><rect x="2" y="2" width="18" height="18" rx="6"/><path d="M8 11 H14"/><path d="M11 8 V14"/></g><text x="160" y="314" fill="#F1F5F9" font-size="32" font-family="Microsoft YaHei, Arial, sans-serif" font-weight="600" text-anchor="start">POST /api/risk-check</text><g data-icon="tabler-outline/api" transform="translate(120,378)" stroke="#22D3EE" fill="none" stroke-width="2"><rect x="2" y="2" width="18" height="18" rx="6"/><path d="M8 11 H14"/><path d="M11 8 V14"/></g><text x="160" y="400" fill="#F1F5F9" font-size="32" font-family="Microsoft YaHei, Arial, sans-serif" font-weight="600" text-anchor="start">POST /api/execute-payment</text><g data-icon="tabler-outline/api" transform="translate(120,464)" stroke="#22D3EE" fill="none" stroke-width="2"><rect x="2" y="2" width="18" height="18" rx="6"/><path d="M8 11 H14"/><path d="M11 8 V14"/></g><text x="160" y="486" fill="#F1F5F9" font-size="32" font-family="Microsoft YaHei, Arial, sans-serif" font-weight="600" text-anchor="start">GET /api/audit-report/{auditReportId}</text><g data-icon="tabler-outline/api" transform="translate(120,550)" stroke="#22D3EE" fill="none" stroke-width="2"><rect x="2" y="2" width="18" height="18" rx="6"/><path d="M8 11 H14"/><path d="M11 8 V14"/></g><text x="160" y="572" fill="#F1F5F9" font-size="32" font-family="Microsoft YaHei, Arial, sans-serif" font-weight="600" text-anchor="start">GET /api/caw-status/{cawRequestId}</text><text x="1220" y="686" fill="#94A3B8" font-size="20" font-family="Microsoft YaHei, Arial, sans-serif" text-anchor="end">10</text></svg>